<svg width="128" height="128" viewBox="0 0 128 128" xmlns="http://www.w3.org/2000/svg">
  <defs>
    <linearGradient id="sky" x1="0" y1="0" x2="0" y2="1">
      <stop offset="0" stop-color="#1b2740"/>
      <stop offset="0.55" stop-color="#2f4364"/>
      <stop offset="1" stop-color="#4a5c76"/>
    </linearGradient>
    <linearGradient id="car" x1="0" y1="0" x2="0" y2="1">
      <stop offset="0" stop-color="#e04b2f"/>
      <stop offset="1" stop-color="#8f1f14"/>
    </linearGradient>
  </defs>
  <rect width="128" height="128" rx="22" fill="url(#sky)"/>
  <g fill="#0d1220" opacity="0.85">
    <rect x="6" y="34" width="18" height="46"/>
    <rect x="28" y="24" width="14" height="56"/>
    <rect x="88" y="30" width="16" height="50"/>
    <rect x="108" y="42" width="14" height="38"/>
  </g>
  <g fill="#f2c46a" opacity="0.8">
    <rect x="9" y="40" width="4" height="5"/>
    <rect x="17" y="52" width="4" height="5"/>
    <rect x="31" y="32" width="4" height="5"/>
    <rect x="93" y="38" width="4" height="5"/>
    <rect x="101" y="54" width="4" height="5"/>
    <rect x="112" y="50" width="4" height="5"/>
  </g>
  <rect x="0" y="80" width="128" height="48" fill="#26282e"/>
  <rect x="0" y="80" width="128" height="4" fill="#3b3e46"/>
  <g fill="#e9e6df">
    <rect x="16" y="104" width="16" height="4"/>
    <rect x="48" y="104" width="16" height="4"/>
    <rect x="80" y="104" width="16" height="4"/>
    <rect x="112" y="104" width="12" height="4"/>
  </g>
  <g transform="translate(30,52)">
    <path d="M2 24 L8 10 Q10 6 16 6 L40 6 Q46 6 48 10 L54 24 Z" fill="url(#car)"/>
    <path d="M12 12 L24 12 L24 20 L9 20 Z" fill="#9fd6ea" opacity="0.85"/>
    <path d="M28 12 L40 12 L46 20 L28 20 Z" fill="#9fd6ea" opacity="0.85"/>
    <rect x="0" y="22" width="56" height="10" rx="3" fill="#b8331f"/>
    <circle cx="14" cy="32" r="7" fill="#101216"/>
    <circle cx="42" cy="32" r="7" fill="#101216"/>
    <circle cx="14" cy="32" r="3" fill="#8d9099"/>
    <circle cx="42" cy="32" r="3" fill="#8d9099"/>
    <rect x="50" y="22" width="5" height="5" rx="1" fill="#ffe9a8"/>
    <rect x="1" y="22" width="5" height="5" rx="1" fill="#ff5a3c"/>
  </g>
  <path d="M22 76 L58 62 L44 92 L30 88 Z" fill="#ffb43c" opacity="0.28"/>
</svg>
